<svg width="231" height="24" viewBox="0 0 231 24" fill="none" xmlns="http://www.w3.org/2000/svg">
<path d="M0.12 23H20.6C26.232 23 29.496 20.632 29.496 16.824C29.496 14.264 28.024 12.472 25.304 11.608C27.512 10.616 28.728 8.92 28.728 6.68C28.728 2.968 25.528 0.599998 19.896 0.599998H0.12V23ZM18.296 5.656C19.896 5.656 20.792 6.328 20.792 7.576C20.792 8.888 19.896 9.528 18.296 9.528H8.216V5.656H18.296ZM18.872 14.2C20.472 14.2 21.4 14.872 21.4 16.152C21.4 17.464 20.472 18.104 18.872 18.104H8.216V14.2H18.872ZM43.9498 23.608C51.7258 23.608 57.2298 19.704 57.2298 14.008C57.2298 8.344 51.6938 4.408 43.9498 4.408C36.2058 4.408 30.6698 8.344 30.6698 14.008C30.6698 19.704 36.1738 23.608 43.9498 23.608ZM43.9498 18.744C40.6218 18.744 38.3498 16.92 38.3498 14.008C38.3498 11.128 40.6218 9.304 43.9498 9.304C47.2778 9.304 49.5498 11.128 49.5498 14.008C49.5498 16.92 47.2778 18.744 43.9498 18.744ZM58.9005 23H66.7405V0.599998H58.9005V23ZM79.0773 23.448C82.4693 23.448 85.3813 22.2 87.2053 20.024V23H95.1093V0.599998H87.2053V8.024C85.3813 5.848 82.4693 4.568 79.0773 4.568C72.7413 4.568 68.3573 8.504 68.3573 14.008C68.3573 19.576 72.7093 23.448 79.0773 23.448ZM81.5733 18.712C78.2453 18.712 76.0373 16.888 76.0373 13.976C76.0373 11.128 78.2453 9.304 81.5733 9.304C84.9653 9.304 87.2693 11.128 87.2693 14.008C87.2693 16.888 84.9653 18.712 81.5733 18.712ZM105.183 23H113.375V14.584H126.783V9.56H113.375V5.848H131.391V0.599998H105.183V23ZM143.137 23.608C150.913 23.608 156.417 19.704 156.417 14.008C156.417 8.344 150.881 4.408 143.137 4.408C135.393 4.408 129.857 8.344 129.857 14.008C129.857 19.704 135.361 23.608 143.137 23.608ZM143.137 18.744C139.809 18.744 137.537 16.92 137.537 14.008C137.537 11.128 139.809 9.304 143.137 9.304C146.465 9.304 148.737 11.128 148.737 14.008C148.737 16.92 146.465 18.744 143.137 18.744ZM158.056 23H165.96V11.512C166.92 10.328 168.52 9.592 170.376 9.592C172.84 9.592 174.664 10.936 174.664 13.72V23H182.536V12.664C182.536 7.672 178.856 4.568 173.576 4.568C170.408 4.568 167.784 5.656 165.96 7.704V5.016H158.056V23ZM183.262 9.56H189.63V17.336C189.63 21.08 191.678 23 196.222 23H205.182V18.264H200.254C198.238 18.264 197.342 17.656 197.342 16.312V9.56H205.182V5.016H197.342V1.112H189.63V5.016H183.262V9.56ZM218.811 23.544C226.107 23.544 230.619 20.824 230.619 17.144C230.619 12.568 224.763 12.024 219.931 11.672C216.539 11.448 213.659 11.32 213.659 10.008C213.659 9.272 214.811 8.632 217.467 8.632C220.379 8.632 222.203 9.336 223.099 10.968H230.363C228.987 6.712 224.027 4.44 217.307 4.44C210.427 4.44 206.107 6.968 206.107 10.744C206.107 15.48 212.315 15.896 217.211 16.216C220.379 16.408 223.003 16.6 223.003 17.912C223.003 18.744 221.851 19.48 218.683 19.48C215.963 19.48 214.011 18.52 213.371 16.92H206.043C207.355 21.272 212.251 23.544 218.811 23.544Z" fill="black"/>
</svg>
