<svg width="208" height="27" viewBox="0 0 208 27" fill="none" xmlns="http://www.w3.org/2000/svg">
<path d="M1.836 23.66L0.432 24.74V26H10.62L15.48 24.2V22.94L14.436 22.22V4.58L15.48 3.86V2.6L10.62 0.799998H0.432V2.06L1.836 3.14V23.66ZM7.02 3.608H8.424L9.252 3.968V22.832L8.424 23.192H7.02V3.608ZM16.6733 16.784H17.5373V22.76L16.9973 23.3V24.452L21.9653 26.288H24.8813L29.8493 24.452V23.3L29.3093 22.76V18.404H26.1053L24.5573 19.772V23.588L23.6933 24.092H23.1533L22.2893 23.588V16.784H27.9773L29.5253 14.948L29.3093 13.904V9.656L29.8493 9.08V7.964L24.8813 6.128H21.9653L16.9973 7.964V9.08L17.5373 9.656V14.48L16.4573 15.74L16.6733 16.784ZM22.2893 8.828L23.1533 8.324H23.6933L24.5573 8.828V13.472L24.1613 13.904H22.2893V8.828ZM40.4139 15.236H43.6179V9.656L44.1579 9.08V7.964L39.1899 6.128H36.2739L31.3059 7.964V9.08L31.8459 9.656V22.76L31.3059 23.3V24.452L36.2739 26.288H39.1899L44.1579 24.452V23.3L43.6179 22.76V18.368H40.4139L38.8659 19.736V23.588L38.0019 24.092H37.4619L36.5979 23.588V8.828L37.4619 8.324H38.0019L38.8659 8.828V13.868L40.4139 15.236ZM46.1545 22.76L45.6145 23.3V24.452L50.5825 26.288H53.4985L58.4665 24.452V23.3L57.9265 22.76V9.656L58.4665 9.08V7.964L53.4985 6.128H50.5825L45.6145 7.964V9.08L46.1545 9.656V22.76ZM50.9065 8.828L51.7705 8.324H52.3105L53.1745 8.828V23.588L52.3105 24.092H51.7705L50.9065 23.588V8.828ZM71.8751 16.532V6.416H64.0991L59.9231 7.964V9.08L60.4631 9.656V23.912L59.3831 24.848V26H66.2951V24.848L65.2151 23.912V9.008L65.8631 8.756H67.1231V15.164L68.6711 16.532H71.8751ZM77.281 12.788L78.469 11.42V8.828L79.333 8.324H79.873L80.737 8.828V13.904H75.049L73.501 15.74L73.717 16.784V22.76L73.177 23.3V24.452L77.353 26H86.569V24.848L85.489 23.948V16.244L86.569 14.948L86.353 13.904H85.489V9.656L86.029 9.08V7.964L81.061 6.128H78.145L73.177 7.964V9.08L73.717 9.656V12.788H77.281ZM79.333 23.804L78.469 23.3V17.216L78.901 16.784H80.737V23.804H79.333ZM87.0536 9.296H89.3216V23.912L88.2416 24.848V26H95.1536V24.848L94.0736 23.912V9.296H95.9096L96.5576 7.46L96.3416 6.416H94.0736V2.024H91.7336L89.3216 3.752V6.416H87.4856L86.8376 8.252L87.0536 9.296ZM102.657 8.504L103.737 7.568V6.416H96.8245V7.568L97.9045 8.504V23.912L96.8245 24.848V26H103.737V24.848L102.657 23.912V8.504ZM97.7245 3.788L99.8485 4.724H100.713L102.837 3.788V1.124L100.713 0.188H99.8485L97.7245 1.124V3.788ZM112.202 6.416V21.788L111.194 23.732H110.942L109.934 21.788V6.416H104.102V7.568L105.182 8.504V21.572L110.69 26.648H111.446L116.954 21.572V8.504L118.034 7.568V6.416H112.202ZM118.626 16.784H119.49V22.76L118.95 23.3V24.452L123.918 26.288H126.834L131.802 24.452V23.3L131.262 22.76V18.404H128.058L126.51 19.772V23.588L125.646 24.092H125.106L124.242 23.588V16.784H129.93L131.478 14.948L131.262 13.904V9.656L131.802 9.08V7.964L126.834 6.128H123.918L118.95 7.964V9.08L119.49 9.656V14.48L118.41 15.74L118.626 16.784ZM124.242 8.828L125.106 8.324H125.646L126.51 8.828V13.472L126.114 13.904H124.242V8.828ZM140.286 16.496H141.582V23.66L140.178 24.74V26H148.206V24.74L146.766 23.66V16.496H151.302L153.102 14.336L152.958 13.292H146.766V3.608L147.594 3.248H148.998V9.332L150.726 10.772H154.182V0.799998H145.398L140.538 2.6V3.86L141.582 4.58V13.724L140.142 15.452L140.286 16.496ZM156.194 22.76L155.654 23.3V24.452L160.622 26.288H163.538L168.506 24.452V23.3L167.966 22.76V9.656L168.506 9.08V7.964L163.538 6.128H160.622L155.654 7.964V9.08L156.194 9.656V22.76ZM160.946 8.828L161.81 8.324H162.35L163.214 8.828V23.588L162.35 24.092H161.81L160.946 23.588V8.828ZM176.658 8.612L177.522 9.116V26H183.354V24.848L182.274 23.912V9.656L182.814 9.08V7.964L178.638 6.416H169.422V7.568L170.502 8.504V23.912L169.422 24.848V26H175.254V8.612H176.658ZM183.839 9.296H186.107V23.912L185.027 24.848V26H191.939V24.848L190.859 23.912V9.296H192.695L193.343 7.46L193.127 6.416H190.859V2.024H188.519L186.107 3.752V6.416H184.271L183.623 8.252L183.839 9.296ZM201.71 8.828V11.564L203.618 12.932H206.462V9.656L207.002 9.08V7.964L202.034 6.128H199.118L194.15 7.964V9.08L194.69 9.656V13.796L194.078 14.264V15.308L201.71 17.432V23.588L200.846 24.092H200.306L199.442 23.588V19.016L197.534 17.648H194.69V22.76L194.15 23.3V24.452L199.118 26.288H202.034L207.002 24.452V23.3L206.462 22.76V16.64L207.074 16.172V15.128L199.442 13.004V8.828L200.306 8.324H200.846L201.71 8.828Z" fill="black"/>
</svg>
