<svg width="249" height="23" viewBox="0 0 249 23" fill="none" xmlns="http://www.w3.org/2000/svg">
<path d="M17.904 4.632V1.24H0.976V23H4.752V13.784H16.304V10.424H4.752V4.632H17.904ZM32.0485 7.256V17.464L29.5525 19.96H26.4165L25.2645 18.808V7.256H21.6805V20.184L24.4965 23H29.4565L32.3365 20.152L32.4325 23H35.6325V7.256H32.0485ZM51.3715 10.264V7.256H46.5395V1.24H43.7555L43.1475 7.256H39.2435V10.264H42.9555V19.864L46.1235 23H51.3715V19.96H48.0435L46.5395 18.488V10.264H51.3715ZM65.611 7.256V17.464L63.115 19.96H59.979L58.827 18.808V7.256H55.243V20.184L58.059 23H63.019L65.899 20.152L65.995 23H69.195V7.256H65.611ZM80.806 7.256L77.67 10.392L77.542 7.256H74.342V23H77.926V13.08L80.326 10.68H84.102V7.256H80.806ZM87.7483 3.96H91.3323V0.151999H87.7483V3.96ZM87.7483 23H91.3323V7.256H87.7483V23ZM107.282 13.912L100.178 13.432L99.4415 12.696V11.096L100.37 10.136H105.266L107.026 11.928L109.298 9.656L106.866 7.256H98.5135L95.8575 9.912V13.752L98.2255 16.12L105.33 16.6L106.066 17.368V19.16L105.106 20.12H99.4415L97.5535 18.2L95.2815 20.472L97.8415 23H106.962L109.65 20.344V16.28L107.282 13.912ZM124.184 10.264V7.256H119.352V1.24H116.568L115.96 7.256H112.056V10.264H115.768V19.864L118.936 23H124.184V19.96H120.856L119.352 18.488V10.264H124.184ZM128.28 3.96H131.864V0.151999H128.28V3.96ZM128.28 23H131.864V7.256H128.28V23ZM148.005 17.88L145.925 19.96H141.541L140.069 18.488V11.768L141.541 10.264H145.765L147.845 12.376L150.149 10.072L147.333 7.256H139.813L136.485 10.584V19.672L139.813 23H147.493L150.309 20.184L148.005 17.88ZM179.654 4.632V1.24H162.726V23H166.502V13.784H178.054V10.424H166.502V4.632H179.654ZM194.183 7.256H186.407L183.079 10.584V19.672L186.407 23H194.183L197.51 19.672V10.584L194.183 7.256ZM192.455 19.96H188.135L186.663 18.488V11.768L188.135 10.264H192.455L193.927 11.768V18.488L192.455 19.96ZM213.259 7.256H208.267L205.419 10.104L205.323 7.256H202.123V23H205.707V12.76L208.203 10.264H211.307L212.491 11.448V23H216.075V10.072L213.259 7.256ZM231.59 10.264V7.256H226.758V1.24H223.974L223.366 7.256H219.462V10.264H223.174V19.864L226.342 23H231.59V19.96H228.262L226.758 18.488V10.264H231.59ZM246.438 13.912L239.334 13.432L238.598 12.696V11.096L239.526 10.136H244.422L246.182 11.928L248.454 9.656L246.022 7.256H237.67L235.014 9.912V13.752L237.382 16.12L244.486 16.6L245.222 17.368V19.16L244.262 20.12H238.598L236.71 18.2L234.438 20.472L236.998 23H246.118L248.806 20.344V16.28L246.438 13.912Z" fill="black"/>
</svg>
