<svg width="289" height="28" viewBox="0 0 289 28" fill="none" xmlns="http://www.w3.org/2000/svg">
<path d="M10.628 2.88C12.764 2.88 14.612 3.288 16.172 4.104C17.732 4.896 19.052 6.072 20.132 7.632L17.54 10.116C16.628 8.724 15.596 7.728 14.444 7.128C13.316 6.504 11.972 6.192 10.412 6.192C9.26 6.192 8.312 6.348 7.568 6.66C6.824 6.972 6.272 7.392 5.912 7.92C5.576 8.424 5.408 9 5.408 9.648C5.408 10.392 5.66 11.04 6.164 11.592C6.692 12.144 7.664 12.576 9.08 12.888L13.904 13.968C16.208 14.472 17.84 15.24 18.8 16.272C19.76 17.304 20.24 18.612 20.24 20.196C20.24 21.66 19.844 22.932 19.052 24.012C18.26 25.092 17.156 25.92 15.74 26.496C14.348 27.072 12.704 27.36 10.808 27.36C9.128 27.36 7.616 27.144 6.272 26.712C4.928 26.28 3.752 25.692 2.744 24.948C1.736 24.204 0.908 23.352 0.26 22.392L2.924 19.728C3.428 20.568 4.064 21.324 4.832 21.996C5.6 22.644 6.488 23.148 7.496 23.508C8.528 23.868 9.668 24.048 10.916 24.048C12.02 24.048 12.968 23.916 13.76 23.652C14.576 23.388 15.188 23.004 15.596 22.5C16.028 21.972 16.244 21.348 16.244 20.628C16.244 19.932 16.004 19.32 15.524 18.792C15.068 18.264 14.204 17.856 12.932 17.568L7.712 16.38C6.272 16.068 5.084 15.624 4.148 15.048C3.212 14.472 2.516 13.776 2.06 12.96C1.604 12.12 1.376 11.184 1.376 10.152C1.376 8.808 1.736 7.596 2.456 6.516C3.2 5.412 4.268 4.536 5.66 3.888C7.052 3.216 8.708 2.88 10.628 2.88ZM35.2084 15.444C35.2084 14.244 34.8724 13.32 34.2004 12.672C33.5524 12 32.6524 11.664 31.5004 11.664C30.4204 11.664 29.4964 11.916 28.7284 12.42C27.9604 12.924 27.3964 13.74 27.0364 14.868L23.7964 13.5C24.2524 12.036 25.1404 10.86 26.4604 9.972C27.8044 9.084 29.5324 8.64 31.6444 8.64C33.0844 8.64 34.3564 8.88 35.4604 9.36C36.5644 9.816 37.4284 10.512 38.0524 11.448C38.7004 12.384 39.0244 13.584 39.0244 15.048V23.076C39.0244 23.964 39.4684 24.408 40.3564 24.408C40.7884 24.408 41.2084 24.348 41.6164 24.228L41.4004 26.892C40.8484 27.156 40.1524 27.288 39.3124 27.288C38.5444 27.288 37.8484 27.156 37.2244 26.892C36.6244 26.604 36.1444 26.184 35.7844 25.632C35.4484 25.056 35.2804 24.348 35.2804 23.508V23.256L36.0724 23.22C35.8564 24.156 35.4124 24.936 34.7404 25.56C34.0684 26.16 33.2884 26.616 32.4004 26.928C31.5124 27.216 30.6124 27.36 29.7004 27.36C28.5724 27.36 27.5524 27.18 26.6404 26.82C25.7524 26.46 25.0444 25.92 24.5164 25.2C24.0124 24.456 23.7604 23.544 23.7604 22.464C23.7604 21.12 24.1924 20.016 25.0564 19.152C25.9444 18.288 27.1924 17.7 28.8004 17.388L35.7844 16.02L35.7484 18.72L30.6724 19.764C29.6644 19.956 28.9084 20.232 28.4044 20.592C27.9004 20.952 27.6484 21.48 27.6484 22.176C27.6484 22.848 27.9004 23.388 28.4044 23.796C28.9324 24.18 29.6284 24.372 30.4924 24.372C31.0924 24.372 31.6684 24.3 32.2204 24.156C32.7964 24.012 33.3124 23.784 33.7684 23.472C34.2244 23.136 34.5724 22.716 34.8124 22.212C35.0764 21.684 35.2084 21.06 35.2084 20.34V15.444ZM45.3357 27V9H48.7557L49.0077 13.68L48.5037 13.176C48.8397 12.144 49.3197 11.292 49.9437 10.62C50.5917 9.924 51.3477 9.42 52.2117 9.108C53.0997 8.796 54.0357 8.64 55.0197 8.64C56.2917 8.64 57.4317 8.892 58.4397 9.396C59.4717 9.876 60.2877 10.608 60.8877 11.592C61.4877 12.576 61.7877 13.824 61.7877 15.336V27H57.9357V16.524C57.9357 14.748 57.5637 13.524 56.8197 12.852C56.0997 12.156 55.1877 11.808 54.0837 11.808C53.2917 11.808 52.5237 12 51.7797 12.384C51.0357 12.744 50.4117 13.332 49.9077 14.148C49.4277 14.964 49.1877 16.056 49.1877 17.424V27H45.3357ZM74.4647 27.36C72.6647 27.36 71.0207 27.012 69.5327 26.316C68.0447 25.62 66.8687 24.636 66.0047 23.364L68.6687 21.06C69.1967 22.044 69.9527 22.836 70.9367 23.436C71.9447 24.012 73.1447 24.3 74.5367 24.3C75.6407 24.3 76.5167 24.108 77.1647 23.724C77.8127 23.34 78.1367 22.8 78.1367 22.104C78.1367 21.648 77.9807 21.252 77.6687 20.916C77.3807 20.556 76.8167 20.28 75.9767 20.088L72.1967 19.296C70.2767 18.912 68.9087 18.3 68.0927 17.46C67.2767 16.596 66.8687 15.504 66.8687 14.184C66.8687 13.2 67.1567 12.288 67.7327 11.448C68.3087 10.608 69.1487 9.936 70.2527 9.432C71.3807 8.904 72.7247 8.64 74.2847 8.64C76.0847 8.64 77.6207 8.964 78.8927 9.612C80.1647 10.236 81.1367 11.136 81.8087 12.312L79.1447 14.544C78.6887 13.584 78.0167 12.876 77.1287 12.42C76.2407 11.94 75.3167 11.7 74.3567 11.7C73.5887 11.7 72.9287 11.796 72.3767 11.988C71.8247 12.18 71.4047 12.444 71.1167 12.78C70.8287 13.116 70.6847 13.512 70.6847 13.968C70.6847 14.448 70.8647 14.868 71.2247 15.228C71.5847 15.588 72.2327 15.864 73.1687 16.056L77.2727 16.92C79.0007 17.256 80.2127 17.832 80.9087 18.648C81.6287 19.44 81.9887 20.412 81.9887 21.564C81.9887 22.716 81.6887 23.736 81.0887 24.624C80.4887 25.488 79.6247 26.16 78.4967 26.64C77.3687 27.12 76.0247 27.36 74.4647 27.36ZM99.0994 15.732V19.296H86.8234V15.732H99.0994ZM112.047 27.36C110.247 27.36 108.603 27.012 107.115 26.316C105.627 25.62 104.451 24.636 103.587 23.364L106.251 21.06C106.779 22.044 107.535 22.836 108.519 23.436C109.527 24.012 110.727 24.3 112.119 24.3C113.223 24.3 114.099 24.108 114.747 23.724C115.395 23.34 115.719 22.8 115.719 22.104C115.719 21.648 115.563 21.252 115.251 20.916C114.963 20.556 114.399 20.28 113.559 20.088L109.779 19.296C107.859 18.912 106.491 18.3 105.675 17.46C104.859 16.596 104.451 15.504 104.451 14.184C104.451 13.2 104.739 12.288 105.315 11.448C105.891 10.608 106.731 9.936 107.835 9.432C108.963 8.904 110.307 8.64 111.867 8.64C113.667 8.64 115.203 8.964 116.475 9.612C117.747 10.236 118.719 11.136 119.391 12.312L116.727 14.544C116.271 13.584 115.599 12.876 114.711 12.42C113.823 11.94 112.899 11.7 111.939 11.7C111.171 11.7 110.511 11.796 109.959 11.988C109.407 12.18 108.987 12.444 108.699 12.78C108.411 13.116 108.267 13.512 108.267 13.968C108.267 14.448 108.447 14.868 108.807 15.228C109.167 15.588 109.815 15.864 110.751 16.056L114.855 16.92C116.583 17.256 117.795 17.832 118.491 18.648C119.211 19.44 119.571 20.412 119.571 21.564C119.571 22.716 119.271 23.736 118.671 24.624C118.071 25.488 117.207 26.16 116.079 26.64C114.951 27.12 113.607 27.36 112.047 27.36ZM132.146 27.36C130.346 27.36 128.762 26.988 127.394 26.244C126.026 25.5 124.958 24.432 124.19 23.04C123.446 21.624 123.074 19.944 123.074 18C123.074 16.056 123.446 14.388 124.19 12.996C124.958 11.58 126.014 10.5 127.358 9.756C128.702 9.012 130.226 8.64 131.93 8.64C133.682 8.64 135.17 9 136.394 9.72C137.618 10.44 138.554 11.424 139.202 12.672C139.85 13.92 140.174 15.336 140.174 16.92C140.174 17.352 140.162 17.76 140.138 18.144C140.114 18.528 140.078 18.864 140.03 19.152H125.558V16.2H138.338L136.43 16.776C136.43 15.144 136.022 13.896 135.206 13.032C134.39 12.144 133.274 11.7 131.858 11.7C130.826 11.7 129.926 11.94 129.158 12.42C128.39 12.9 127.802 13.62 127.394 14.58C126.986 15.516 126.782 16.668 126.782 18.036C126.782 19.38 126.998 20.52 127.43 21.456C127.862 22.392 128.474 23.1 129.266 23.58C130.058 24.06 130.994 24.3 132.074 24.3C133.274 24.3 134.246 24.072 134.99 23.616C135.734 23.16 136.322 22.524 136.754 21.708L139.814 23.148C139.382 24.012 138.794 24.768 138.05 25.416C137.33 26.04 136.466 26.52 135.458 26.856C134.45 27.192 133.346 27.36 132.146 27.36ZM145.039 27V9H148.315L148.675 12.24C149.155 11.064 149.863 10.176 150.799 9.576C151.759 8.952 152.935 8.64 154.327 8.64C154.687 8.64 155.047 8.676 155.407 8.748C155.767 8.796 156.067 8.88 156.307 9L155.767 12.384C155.503 12.288 155.203 12.216 154.867 12.168C154.555 12.096 154.123 12.06 153.571 12.06C152.827 12.06 152.095 12.264 151.375 12.672C150.655 13.056 150.055 13.644 149.575 14.436C149.119 15.228 148.891 16.236 148.891 17.46V27H145.039ZM161.889 5.976C161.049 5.976 160.401 5.772 159.945 5.364C159.513 4.932 159.297 4.332 159.297 3.564C159.297 2.796 159.513 2.208 159.945 1.8C160.401 1.392 161.049 1.188 161.889 1.188C162.705 1.188 163.329 1.392 163.761 1.8C164.217 2.208 164.445 2.796 164.445 3.564C164.445 4.332 164.217 4.932 163.761 5.364C163.329 5.772 162.705 5.976 161.889 5.976ZM163.797 9V27H159.945V9H163.797ZM177.456 0.647998C178.2 0.647998 178.872 0.731998 179.472 0.899999C180.096 1.044 180.564 1.248 180.876 1.512L180.156 4.284C179.892 4.116 179.592 3.996 179.256 3.924C178.92 3.828 178.536 3.78 178.104 3.78C177.12 3.78 176.34 4.008 175.764 4.464C175.212 4.92 174.936 5.664 174.936 6.696V9.324L175.044 10.296V27H171.192V6.408C171.192 5.496 171.324 4.68 171.588 3.96C171.876 3.24 172.296 2.64 172.848 2.16C173.4 1.656 174.06 1.284 174.828 1.044C175.62 0.779999 176.496 0.647998 177.456 0.647998ZM180.768 9V12.024H167.808V9H180.768ZM212.462 6.552H199.142V13.464H209.582V16.776H199.142V27H195.29V3.24H212.462V6.552ZM222.671 8.64C224.423 8.64 225.971 9.012 227.315 9.756C228.659 10.5 229.703 11.58 230.447 12.996C231.215 14.388 231.599 16.056 231.599 18C231.599 19.944 231.215 21.624 230.447 23.04C229.703 24.432 228.659 25.5 227.315 26.244C225.971 26.988 224.423 27.36 222.671 27.36C220.919 27.36 219.371 26.988 218.027 26.244C216.683 25.5 215.627 24.432 214.859 23.04C214.091 21.624 213.707 19.944 213.707 18C213.707 16.056 214.091 14.388 214.859 12.996C215.627 11.58 216.683 10.5 218.027 9.756C219.371 9.012 220.919 8.64 222.671 8.64ZM222.671 11.664C221.591 11.664 220.667 11.916 219.899 12.42C219.155 12.9 218.579 13.608 218.171 14.544C217.763 15.48 217.559 16.632 217.559 18C217.559 19.344 217.763 20.496 218.171 21.456C218.579 22.392 219.155 23.112 219.899 23.616C220.667 24.096 221.591 24.336 222.671 24.336C223.751 24.336 224.663 24.096 225.407 23.616C226.151 23.112 226.727 22.392 227.135 21.456C227.543 20.496 227.747 19.344 227.747 18C227.747 16.632 227.543 15.48 227.135 14.544C226.727 13.608 226.151 12.9 225.407 12.42C224.663 11.916 223.751 11.664 222.671 11.664ZM236.445 27V9H239.865L240.117 13.68L239.613 13.176C239.949 12.144 240.429 11.292 241.053 10.62C241.701 9.924 242.457 9.42 243.321 9.108C244.209 8.796 245.145 8.64 246.129 8.64C247.401 8.64 248.541 8.892 249.549 9.396C250.581 9.876 251.397 10.608 251.997 11.592C252.597 12.576 252.897 13.824 252.897 15.336V27H249.045V16.524C249.045 14.748 248.673 13.524 247.929 12.852C247.209 12.156 246.297 11.808 245.193 11.808C244.401 11.808 243.633 12 242.889 12.384C242.145 12.744 241.521 13.332 241.017 14.148C240.537 14.964 240.297 16.056 240.297 17.424V27H236.445ZM263.779 3.708V21.6C263.779 22.488 264.007 23.136 264.463 23.544C264.943 23.952 265.579 24.156 266.371 24.156C267.019 24.156 267.583 24.06 268.063 23.868C268.543 23.652 268.987 23.364 269.395 23.004L270.259 25.812C269.707 26.292 269.023 26.676 268.207 26.964C267.415 27.228 266.527 27.36 265.543 27.36C264.511 27.36 263.563 27.192 262.699 26.856C261.835 26.52 261.163 25.98 260.683 25.236C260.203 24.468 259.951 23.472 259.927 22.248V4.788L263.779 3.708ZM269.971 9V12.024H256.471V9H269.971ZM280.621 27.36C278.821 27.36 277.177 27.012 275.689 26.316C274.201 25.62 273.025 24.636 272.161 23.364L274.825 21.06C275.353 22.044 276.109 22.836 277.093 23.436C278.101 24.012 279.301 24.3 280.693 24.3C281.797 24.3 282.673 24.108 283.321 23.724C283.969 23.34 284.293 22.8 284.293 22.104C284.293 21.648 284.137 21.252 283.825 20.916C283.537 20.556 282.973 20.28 282.133 20.088L278.353 19.296C276.433 18.912 275.065 18.3 274.249 17.46C273.433 16.596 273.025 15.504 273.025 14.184C273.025 13.2 273.313 12.288 273.889 11.448C274.465 10.608 275.305 9.936 276.409 9.432C277.537 8.904 278.881 8.64 280.441 8.64C282.241 8.64 283.777 8.964 285.049 9.612C286.321 10.236 287.293 11.136 287.965 12.312L285.301 14.544C284.845 13.584 284.173 12.876 283.285 12.42C282.397 11.94 281.473 11.7 280.513 11.7C279.745 11.7 279.085 11.796 278.533 11.988C277.981 12.18 277.561 12.444 277.273 12.78C276.985 13.116 276.841 13.512 276.841 13.968C276.841 14.448 277.021 14.868 277.381 15.228C277.741 15.588 278.389 15.864 279.325 16.056L283.429 16.92C285.157 17.256 286.369 17.832 287.065 18.648C287.785 19.44 288.145 20.412 288.145 21.564C288.145 22.716 287.845 23.736 287.245 24.624C286.645 25.488 285.781 26.16 284.653 26.64C283.525 27.12 282.181 27.36 280.621 27.36Z" fill="black"/>
</svg>
