<svg width="255" height="32" viewBox="0 0 255 32" fill="none" xmlns="http://www.w3.org/2000/svg">
<path d="M8.36 26.736C13.4 26.736 17.072 23.64 17.072 19.428C17.072 16.044 14.48 14.28 12.032 12.732C9.836 11.328 7.748 10.104 7.748 8.016C7.748 6.18 9.152 4.848 11.204 4.848C13.04 4.848 15.056 6 16.136 7.584L15.488 9.744H17.612L19.52 3.156H17.432L16.712 5.568C15.308 3.804 13.292 2.832 11.168 2.832C7.712 2.832 5.228 5.172 5.228 8.376C5.228 11.544 8.18 13.092 10.772 14.748C12.788 16.044 14.552 17.412 14.552 19.68C14.552 22.596 11.96 24.72 8.288 24.72C5.228 24.72 2.924 23.136 2.924 21.012C2.924 19.248 4.04 18.168 5.768 18.168C6.452 18.168 7.208 18.312 8.108 18.672L8.792 16.8C7.604 16.332 6.776 16.152 5.624 16.152C2.708 16.152 0.584 18.168 0.584 21.12C0.584 24.36 3.788 26.736 8.36 26.736ZM32.8619 8.34C27.4259 8.34 23.3579 12.048 23.3579 17.016C23.3579 21.696 26.9579 24.612 32.7899 24.612C36.5699 24.612 40.3859 23.136 43.2299 20.616L42.0419 18.924C39.0899 21.408 36.1379 22.596 32.7539 22.596C28.3619 22.596 25.8419 20.544 25.8419 16.98C25.8419 13.2 28.8299 10.356 32.8619 10.356C34.5539 10.356 36.2099 10.824 37.4699 11.616L36.6059 14.532H38.7299L39.8819 10.536C37.7939 9.024 35.4899 8.34 32.8619 8.34ZM43.1799 20.652C46.0959 18.24 48.5799 14.82 50.4519 10.608H56.6439L53.5839 19.14C52.5759 22.056 53.8719 24.216 56.6799 24.216C58.8759 24.216 62.1159 22.884 67.4439 19.788L68.1639 17.16C62.4399 20.508 58.9119 22.128 57.2199 22.128C55.7079 22.128 55.2759 21.084 55.9239 19.176L59.7039 8.664H51.2439C51.4959 8.016 51.7119 7.368 51.9279 6.684H49.6599C48.0399 11.616 45.2679 16.224 41.9919 18.96L43.1799 20.652ZM77.3658 5.352C78.6978 5.352 79.7778 4.308 79.7778 2.976C79.7778 1.824 78.8778 0.959998 77.7618 0.959998C76.4298 0.959998 75.3498 2.004 75.3498 3.336C75.3498 4.488 76.2138 5.352 77.3658 5.352ZM67.2498 19.86L73.0458 16.296L72.4698 18.276C71.4258 21.984 72.9018 24.36 76.3218 24.36C78.9858 24.36 82.2258 22.992 89.2098 18.888L89.9298 16.368C82.6218 20.688 79.0578 22.308 76.7538 22.308C74.7738 22.308 74.0898 21.012 74.7738 18.6L77.6538 8.664H68.9058L68.3298 10.608H74.6658L73.8018 13.632L68.0058 17.268L67.2498 19.86ZM88.8718 8.664L88.2958 10.608H91.1038L85.1997 31.2H87.6118L90.4558 21.336C91.9678 23.28 93.9118 24.288 96.1078 24.288C100.32 24.288 103.74 23.028 110.796 18.888L111.516 16.368C107.952 18.528 104.748 20.22 102.3 21.264C103.74 19.572 104.568 17.304 104.568 14.964C104.568 11.004 102.264 8.376 98.8798 8.376C96.9718 8.376 95.2438 9.276 93.3718 11.22L94.0918 8.664H88.8718ZM98.1238 10.392C100.608 10.392 102.192 12.264 102.192 15.18C102.192 19.032 99.3838 22.272 95.9638 22.272C94.0198 22.272 92.2918 21.228 91.0318 19.284L92.6878 13.488C94.9918 11.184 96.3958 10.392 98.1238 10.392ZM110.674 18.96L114.058 16.872L113.662 18.276C112.582 22.056 114.202 24.36 117.982 24.36C120.322 24.36 123.166 23.532 127.63 21.516L126.91 19.716C122.878 21.552 120.322 22.308 118.378 22.308C116.038 22.308 115.282 21.048 116.002 18.492L118.27 10.608H126.982L127.558 8.664H118.81L120.106 4.2H117.694L116.398 8.664H110.89L110.35 10.608H115.858L114.778 14.352L111.43 16.404L110.674 18.96ZM150.102 21.984L149.526 24H159.426L160.002 21.984H155.79L158.022 14.208H164.214L164.79 12.192H158.598L160.614 5.172H170.478L169.254 9.312H171.486L173.286 3.156H155.502L154.926 5.172H158.094L153.27 21.984H150.102ZM197.14 18.888L197.86 16.368C193.972 18.708 190.768 20.4 188.356 21.372C189.832 19.752 190.624 17.736 190.624 15.504C190.624 11.292 187.528 8.34 183.1 8.34C178.168 8.34 174.28 12.228 174.28 17.124C174.28 21.372 177.448 24.288 182.02 24.288C186.34 24.288 190.191 22.956 197.14 18.888ZM181.984 22.272C178.852 22.272 176.656 20.076 176.656 16.944C176.656 13.272 179.428 10.428 182.956 10.428C186.088 10.428 188.284 12.588 188.284 15.72C188.284 19.392 185.512 22.272 181.984 22.272ZM195.253 24H197.665L200.149 15.432C203.641 11.76 205.441 10.464 207.025 10.464C208.753 10.464 209.401 11.868 208.753 14.064L206.845 20.4C206.125 22.812 207.061 24.288 209.293 24.288C210.805 24.288 212.353 23.568 218.545 19.788L219.265 17.16C212.425 21.408 210.949 22.164 209.977 22.164C209.113 22.164 208.861 21.66 209.149 20.724L211.201 13.884C212.137 10.824 210.733 8.376 207.997 8.376C205.873 8.376 204.001 9.672 200.725 13.416L202.093 8.664H196.837L196.297 10.608H199.105L195.253 24ZM218.351 19.86L221.735 17.808L221.591 18.312C220.439 22.308 222.527 24.612 227.207 24.612C230.807 24.612 234.371 23.208 237.503 20.616L236.315 18.924C233.435 21.336 230.519 22.524 227.495 22.524C224.291 22.524 223.175 21.336 223.931 18.636L226.199 10.608H234.911L235.487 8.664H226.775L228.035 4.2H225.623L224.363 8.664H218.819L218.279 10.608H223.787L222.491 15.18L219.107 17.268L218.351 19.86ZM237.453 20.652C240.513 17.952 243.465 15.036 246.201 11.976L248.901 14.784C251.241 17.304 251.817 18.312 251.817 19.392C251.817 21.228 249.801 22.344 246.669 22.344C244.905 22.344 242.781 21.912 241.125 21.228L240.441 23.1C242.241 23.856 244.725 24.324 246.885 24.324C251.241 24.324 254.121 22.308 254.121 19.356C254.121 17.916 253.473 16.692 250.485 13.452L247.605 10.356C248.217 9.636 248.829 8.916 249.441 8.16H246.777C243.213 12.264 239.649 15.9 236.265 18.96L237.453 20.652Z" fill="black"/>
</svg>
