<svg width="184" height="27" viewBox="0 0 184 27" fill="none" xmlns="http://www.w3.org/2000/svg">
<path d="M10.916 3.23633C9.48633 3.23633 8.36719 3.42383 7.55859 3.79883C6.08203 4.47852 5.34375 5.375 5.34375 6.48828C5.34375 7.08594 5.51367 7.56055 5.85352 7.91211C6.75586 8.86133 7.93945 9.66406 9.4043 10.3203C10.2832 10.707 11.5547 11.2051 13.2188 11.8145C14.8945 12.4238 16.0254 12.8633 16.6113 13.1328C17.1973 13.4023 17.8477 13.7656 18.5625 14.2227C19.2891 14.6797 19.8867 15.1543 20.3555 15.6465C21.4805 16.8301 22.043 18.1836 22.043 19.707C22.043 20.7969 21.7441 21.7812 21.1465 22.6602C20.5605 23.5391 19.7754 24.2422 18.791 24.7695C16.7637 25.8711 14.4551 26.4219 11.8652 26.4219C8.37305 26.4219 5.51953 25.8125 3.30469 24.5938C2.56641 24.1836 1.96289 23.6562 1.49414 23.0117C1.02539 22.3672 0.791016 21.6816 0.791016 20.9551C0.791016 20.2168 1.01367 19.6367 1.45898 19.2148C1.9043 18.793 2.53711 18.582 3.35742 18.582C4.18945 18.582 4.83398 18.8691 5.29102 19.4434C5.75977 20.0176 5.99414 20.7676 5.99414 21.6934C5.99414 22.0566 5.95898 22.4492 5.88867 22.8711C7.66992 23.7852 9.57422 24.2422 11.6016 24.2422C13.3945 24.2422 14.9238 23.9727 16.1895 23.4336C17.6309 22.8125 18.3516 21.7344 18.3516 20.1992C18.3516 18.5938 16.7461 17.1758 13.5352 15.9453C12.9961 15.7461 12.1641 15.4531 11.0391 15.0664C8.74219 14.2695 7.01367 13.5664 5.85352 12.957C3.00586 11.457 1.58203 9.57617 1.58203 7.31445C1.58203 6.24805 1.86914 5.29883 2.44336 4.4668C3.01758 3.63477 3.78516 2.97852 4.74609 2.49805C6.69141 1.53711 8.96484 1.05664 11.5664 1.05664C14.625 1.05664 17.0977 1.56641 18.9844 2.58594C19.6406 2.94922 20.1738 3.42383 20.584 4.00977C21.0059 4.58398 21.2168 5.24023 21.2168 5.97852C21.2168 6.70508 20.959 7.30859 20.4434 7.78906C19.9395 8.25781 19.3125 8.49219 18.5625 8.49219C17.8125 8.49219 17.2617 8.45703 16.9102 8.38672C16.7578 6.32422 16.2773 4.95312 15.4688 4.27344C14.6602 3.58203 13.1426 3.23633 10.916 3.23633ZM25.5938 24.084C23.9766 22.4902 23.168 20.375 23.168 17.7383C23.168 15.1016 23.9824 12.9629 25.6113 11.3223C27.252 9.66992 29.3379 8.84375 31.8691 8.84375C33.873 8.84375 35.5605 9.49414 36.9316 10.7949C38.3145 12.084 39.0059 13.707 39.0059 15.6641C39.0059 16.6133 38.2559 17.0879 36.7559 17.0879H26.5781C26.6016 18.9863 27.2168 20.5859 28.4238 21.8867C29.6309 23.1875 31.1543 23.8379 32.9941 23.8379C34.2129 23.8379 35.3965 23.4805 36.5449 22.7656C37.1543 22.3906 37.541 22.2031 37.7051 22.2031C37.8809 22.2031 38.0742 22.291 38.2852 22.4668C38.5078 22.6309 38.6191 22.8359 38.6191 23.082C38.6191 23.7266 38.2031 24.3242 37.3711 24.875C36.5508 25.4141 35.6426 25.8125 34.6465 26.0703C33.6504 26.3398 32.7773 26.4746 32.0273 26.4746C29.3672 26.4746 27.2227 25.6777 25.5938 24.084ZM35.7715 15.2422C35.748 13.8945 35.3965 12.7988 34.7168 11.9551C34.0371 11.1113 33.041 10.6895 31.7285 10.6895C30.4277 10.6895 29.2852 11.1582 28.3008 12.0957C27.3281 13.0332 26.8125 14.1055 26.7539 15.3125H30.8672C32.6953 15.3125 34.3301 15.2891 35.7715 15.2422ZM46.2305 26L44.7188 26.0176C43.1836 26.0176 42.2344 25.7832 41.8711 25.3145C41.707 25.1035 41.625 24.8516 41.625 24.5586C41.625 24.2539 41.7422 24.043 41.9766 23.9258C42.2109 23.8086 42.4688 23.7441 42.75 23.7324C43.043 23.7207 43.3066 23.6328 43.541 23.4688C43.7754 23.293 43.8926 23.0176 43.8926 22.6426V13.959C43.8926 12.916 43.7637 12.2715 43.5059 12.0254C43.2598 11.7793 43.0488 11.6211 42.873 11.5508C42.709 11.4805 42.4453 11.3926 42.082 11.2871C41.7188 11.1816 41.4199 11.0762 41.1855 10.9707C40.9629 10.8652 40.8516 10.707 40.8516 10.4961C40.8516 9.55859 42.1113 9.08984 44.6309 9.08984C45.6973 9.08984 46.3711 9.27734 46.6523 9.65234C46.9453 10.0156 47.0918 10.8652 47.0918 12.2012C47.4902 11.1934 48.1465 10.4023 49.0605 9.82812C49.9863 9.25391 50.9297 8.9668 51.8906 8.9668C52.8633 8.9668 53.6602 9.17773 54.2812 9.59961C54.9141 10.0098 55.2305 10.5371 55.2305 11.1816C55.2305 11.8145 55.0254 12.3242 54.6152 12.7109C54.2051 13.0859 53.7012 13.2734 53.1035 13.2734C52.5059 13.2734 51.9902 13.1152 51.5566 12.7988C51.1348 12.4824 50.8594 12.0723 50.7305 11.5684C50.4258 11.5215 50.1738 11.498 49.9746 11.498C48.1465 11.498 47.2324 13.6016 47.2324 17.8086V22.6426C47.2324 23.3223 47.6074 23.6855 48.3574 23.7324C49.1191 23.7676 49.5 24.0664 49.5 24.6289C49.5 25.2734 49.1484 25.6719 48.4453 25.8242C47.9062 25.9414 47.168 26 46.2305 26ZM58.9395 3.93945C58.9395 3.42383 59.1855 2.94336 59.6777 2.49805C60.1816 2.04102 60.7266 1.8125 61.3125 1.8125C61.9102 1.8125 62.4844 1.99414 63.0352 2.35742C63.5977 2.7207 63.8789 3.20117 63.8789 3.79883C63.8789 4.39648 63.6445 4.90039 63.1758 5.31055C62.707 5.70898 62.1328 5.9082 61.4531 5.9082C60.7734 5.9082 60.1816 5.7207 59.6777 5.3457C59.1855 4.9707 58.9395 4.50195 58.9395 3.93945ZM62.6133 26L61.1016 26.0176C59.5664 26.0176 58.6172 25.7832 58.2539 25.3145C58.0898 25.1035 58.0078 24.8516 58.0078 24.5586C58.0078 24.2539 58.125 24.043 58.3594 23.9258C58.5938 23.8086 58.8516 23.7441 59.1328 23.7324C59.4258 23.7207 59.6895 23.6328 59.9238 23.4688C60.1582 23.293 60.2754 23.0176 60.2754 22.6426V13.1855C60.2754 12.1191 59.8594 11.5449 59.0273 11.4629C58.9453 11.4512 58.8398 11.4395 58.7109 11.4277C58.582 11.416 58.4883 11.4102 58.4297 11.4102C58.3711 11.3984 58.2949 11.3867 58.2012 11.375C58.1191 11.3516 58.0547 11.3281 58.0078 11.3047C57.9727 11.2812 57.9316 11.252 57.8848 11.2168C57.8027 11.1582 57.7617 10.9941 57.7617 10.7246C57.7617 10.4434 57.9375 10.1562 58.2891 9.86328C58.957 9.32422 59.8477 9.05469 60.9609 9.05469C61.9922 9.05469 62.5957 9.0957 62.7715 9.17773C62.959 9.25977 63.1172 9.34766 63.2461 9.44141C63.4922 9.60547 63.6152 9.91602 63.6152 10.373V22.6426C63.6152 23.3223 63.9902 23.6855 64.7402 23.7324C65.502 23.7676 65.8828 24.0664 65.8828 24.6289C65.8828 25.2734 65.5312 25.6719 64.8281 25.8242C64.2891 25.9414 63.5508 26 62.6133 26ZM69.6797 25.5781C69.4805 25.4727 69.334 25.332 69.2402 25.1562C69.1582 24.9805 69.1172 24.7637 69.1172 24.5059C69.1172 24.2363 69.2344 24.043 69.4688 23.9258C69.7031 23.8086 69.9609 23.7441 70.2422 23.7324C70.5352 23.7207 70.7988 23.6328 71.0332 23.4688C71.2676 23.293 71.3848 23.0176 71.3848 22.6426V11.3574H70.1543C69.8496 11.3574 69.5918 11.252 69.3809 11.041C69.1816 10.8184 69.082 10.502 69.082 10.0918C69.082 9.68164 69.1816 9.41211 69.3809 9.2832C69.5801 9.1543 69.9492 9.08984 70.4883 9.08984H71.3848V6.50586C71.3848 4.53711 71.9766 3.01953 73.1602 1.95312C74.3555 0.886719 75.9844 0.353516 78.0469 0.353516C79.7344 0.353516 80.9531 0.6875 81.7031 1.35547C82.1367 1.73047 82.3535 2.22266 82.3535 2.83203C82.3535 4.26172 81.6328 4.97656 80.1914 4.97656C78.9375 4.97656 78.3105 4.26172 78.3105 2.83203V2.58594C77.8652 2.39844 77.4141 2.30469 76.957 2.30469C74.9531 2.30469 73.9512 3.34766 73.9512 5.43359C73.9512 6.81641 74.209 8.03516 74.7246 9.08984H77.2734C78.1172 9.08984 78.5391 9.33594 78.5391 9.82812C78.5391 10.2266 78.4102 10.5723 78.1523 10.8652C77.9062 11.1582 77.6309 11.3047 77.3262 11.3047H74.7246V22.6426C74.7246 23.3223 75.0996 23.6855 75.8496 23.7324C76.6113 23.7676 76.9922 24.0664 76.9922 24.6289C76.9922 25.2734 76.5586 25.6719 75.6914 25.8242C75.0586 25.9414 74.4316 26 73.8105 26C73.2012 26 72.7617 26 72.4922 26C72.2227 26 71.9883 26 71.7891 26C71.6016 25.9883 71.3379 25.9707 70.998 25.9473C70.6699 25.9238 70.418 25.8828 70.2422 25.8242C70.0664 25.7656 69.8789 25.6836 69.6797 25.5781ZM89.332 3.23633C89.3203 3.17773 89.3027 3.11328 89.2793 3.04297C89.2676 2.96094 89.2617 2.80859 89.2617 2.58594C89.2617 2.36328 89.3496 2.14648 89.5254 1.93555C89.7012 1.71289 90.0176 1.56055 90.4746 1.47852C91.0605 1.37305 92.1562 1.32031 93.7617 1.32031H108.439C109.33 1.32031 110.045 1.67188 110.584 2.375C111.135 3.07812 111.41 3.93359 111.41 4.94141C111.41 6.67578 110.807 7.54297 109.6 7.54297C108.85 7.54297 108.328 7.30859 108.035 6.83984C107.754 6.35938 107.613 5.73828 107.613 4.97656C107.613 4.20312 107.619 3.67578 107.631 3.39453H95.7656V12.166H103.289C103.371 12.084 103.512 11.8438 103.711 11.4453C104.262 10.3555 104.654 9.81055 104.889 9.81055C106.213 9.81055 106.875 10.9355 106.875 13.1855C106.875 14.1465 106.734 14.9785 106.453 15.6816C106.184 16.373 105.75 16.7188 105.152 16.7188C104.824 16.7188 104.555 16.5957 104.344 16.3496C104.145 16.1035 103.945 15.7285 103.746 15.2246C103.547 14.7207 103.389 14.375 103.271 14.1875H95.7656V22.2207C95.7656 22.7363 95.9004 23.1055 96.1699 23.3281C96.4512 23.5391 96.7852 23.668 97.1719 23.7148C97.5586 23.75 97.8105 23.7852 97.9277 23.8203C98.2441 23.8906 98.4023 24.0664 98.4023 24.3477C98.4023 24.6289 98.373 24.8457 98.3145 24.998C98.2559 25.1504 98.1562 25.2793 98.0156 25.3848C97.8867 25.4902 97.7578 25.584 97.6289 25.666C97.5 25.7363 97.3184 25.7949 97.084 25.8418C96.8496 25.8887 96.6504 25.9297 96.4863 25.9648C96.3223 25.9883 96.0938 26.0059 95.8008 26.0176C95.5078 26.0293 95.2852 26.0352 95.1328 26.0352H94.4297C92.7188 26.0352 91.6699 26.0117 91.2832 25.9648C89.9355 25.8125 89.2617 25.2969 89.2617 24.418C89.2617 24.0078 89.6602 23.75 90.457 23.6445C90.832 23.5859 91.084 23.5273 91.2129 23.4688C91.6699 23.2812 91.8984 22.8652 91.8984 22.2207V5.08203C91.8984 4.23828 91.459 3.75781 90.5801 3.64062C90.416 3.61719 90.2637 3.59961 90.123 3.58789C89.9824 3.56445 89.8652 3.54688 89.7715 3.53516C89.6777 3.51172 89.6133 3.48828 89.5781 3.46484C89.543 3.44141 89.4961 3.41211 89.4375 3.37695C89.3906 3.33008 89.3555 3.2832 89.332 3.23633ZM120.234 26.4395C117.586 26.4395 115.453 25.6074 113.836 23.9434C112.219 22.2676 111.41 20.1465 111.41 17.5801C111.41 15.8691 111.838 14.3457 112.693 13.0098C113.549 11.6738 114.703 10.6543 116.156 9.95117C117.621 9.23633 119.25 8.87891 121.043 8.87891C123.621 8.87891 125.748 9.68164 127.424 11.2871C129.1 12.8926 129.938 14.9668 129.938 17.5098C129.938 19.2676 129.504 20.832 128.637 22.2031C127.781 23.5625 126.621 24.6113 125.156 25.3496C123.691 26.0762 122.051 26.4395 120.234 26.4395ZM120.955 24.4883C122.701 24.4883 124.061 23.8965 125.033 22.7129C126.018 21.5293 126.51 19.9531 126.51 17.9844C126.51 16.0156 125.947 14.3164 124.822 12.8867C123.697 11.457 122.25 10.7422 120.48 10.7422C118.723 10.7422 117.369 11.3457 116.42 12.5527C115.471 13.7598 114.996 15.3418 114.996 17.2988C114.996 19.2559 115.553 20.9434 116.666 22.3613C117.779 23.7793 119.209 24.4883 120.955 24.4883ZM136.635 26L135.123 26.0176C133.588 26.0176 132.639 25.7832 132.275 25.3145C132.111 25.1035 132.029 24.8516 132.029 24.5586C132.029 24.2539 132.146 24.043 132.381 23.9258C132.615 23.8086 132.873 23.7441 133.154 23.7324C133.447 23.7207 133.711 23.6328 133.945 23.4688C134.18 23.293 134.297 23.0176 134.297 22.6426V12.6055C134.297 11.9258 133.875 11.5156 133.031 11.375C132.445 11.2812 132.088 11.1816 131.959 11.0762C131.842 10.959 131.783 10.7598 131.783 10.4785C131.783 10.1855 131.988 9.92188 132.398 9.6875C133.09 9.26562 133.957 9.05469 135 9.05469C136.055 9.05469 136.729 9.20703 137.021 9.51172C137.326 9.80469 137.479 10.4668 137.479 11.498C139.084 9.68164 141.293 8.77344 144.105 8.77344C146.391 8.77344 148.008 9.40039 148.957 10.6543C149.918 11.8965 150.398 13.7832 150.398 16.3145V22.6426C150.398 23.3223 150.773 23.6855 151.523 23.7324C152.285 23.7676 152.666 24.0664 152.666 24.6289C152.666 25.2617 152.303 25.6602 151.576 25.8242C151.037 25.9414 150.293 26 149.344 26L147.832 26.0176C146.297 26.0176 145.348 25.7832 144.984 25.3145C144.82 25.1035 144.738 24.8516 144.738 24.5586C144.738 24.2539 144.855 24.043 145.09 23.9258C145.324 23.8086 145.582 23.7441 145.863 23.7324C146.156 23.7207 146.42 23.6328 146.654 23.4688C146.889 23.293 147.006 23.0176 147.006 22.6426V17.5273C147.006 15.3477 146.754 13.7539 146.25 12.7461C145.688 11.6094 144.557 11.041 142.857 11.041C140.807 11.041 139.412 11.5859 138.674 12.6758C137.982 13.707 137.637 15.3535 137.637 17.6152V22.6426C137.637 23.3223 138.012 23.6855 138.762 23.7324C139.523 23.7676 139.904 24.0664 139.904 24.6289C139.904 25.2734 139.547 25.6719 138.832 25.8242C138.316 25.9414 137.584 26 136.635 26ZM156.129 11.4453L155.057 11.4629C154.623 11.4629 154.307 11.4219 154.107 11.3398C153.908 11.2578 153.809 11.0879 153.809 10.8301C153.809 10.5605 153.92 10.3203 154.143 10.1094C154.377 9.88672 154.641 9.7168 154.934 9.59961C155.742 9.27148 156.223 8.99609 156.375 8.77344C156.539 8.53906 156.779 8.03516 157.096 7.26172C157.881 5.32812 158.537 4.36133 159.064 4.36133C159.334 4.36133 159.486 4.6543 159.521 5.24023C159.568 5.81445 159.592 6.25391 159.592 6.55859C159.604 6.86328 159.604 7.32031 159.592 7.92969C159.58 8.52734 159.574 8.94336 159.574 9.17773L163.758 9.19531C164.168 9.19531 164.514 9.30078 164.795 9.51172C165.076 9.71094 165.217 9.98047 165.217 10.3203C165.217 10.6602 165.076 10.9238 164.795 11.1113C164.525 11.2988 164.186 11.3926 163.775 11.3926H159.574L159.557 20.375C159.557 22.918 160.195 24.1895 161.473 24.1895C161.824 24.1895 162.346 24.084 163.037 23.873C163.729 23.6504 164.18 23.5391 164.391 23.5391C164.871 23.5391 165.111 23.8145 165.111 24.3652C165.111 24.7988 164.543 25.2324 163.406 25.666C162.281 26.0996 161.121 26.3164 159.926 26.3164C158.742 26.3164 157.811 25.8535 157.131 24.9277C156.463 24.002 156.129 22.7832 156.129 21.2715V11.4453ZM175.605 24.4004C178.242 24.4004 179.561 23.5918 179.561 21.9746C179.561 20.7559 178.371 19.8008 175.992 19.1094C175.547 18.9805 175.008 18.8281 174.375 18.6523C173.191 18.3359 172.395 18.0957 171.984 17.9316C170.953 17.5332 170.08 16.9531 169.365 16.1914C168.65 15.4297 168.293 14.5273 168.293 13.4844C168.293 12.1367 168.932 11.0176 170.209 10.127C171.498 9.23633 173.051 8.79102 174.867 8.79102C176.637 8.79102 178.295 9.11328 179.842 9.75781C180.604 10.0742 181.219 10.5137 181.688 11.0762C182.168 11.6387 182.408 12.2246 182.408 12.834C182.408 13.4434 182.162 13.9297 181.67 14.293C181.189 14.6562 180.686 14.8379 180.158 14.8379C179.643 14.8379 179.297 14.791 179.121 14.6973C178.957 14.5918 178.875 14.3574 178.875 13.9941C178.875 11.7324 177.674 10.6016 175.271 10.6016C174.275 10.6016 173.408 10.8242 172.67 11.2695C171.932 11.7031 171.562 12.2715 171.562 12.9746C171.562 14.0762 172.711 14.9492 175.008 15.5938C175.371 15.6875 175.811 15.8047 176.326 15.9453C176.842 16.0742 177.316 16.209 177.75 16.3496C178.184 16.4785 178.635 16.6367 179.104 16.8242C179.584 17 180.088 17.2344 180.615 17.5273C181.143 17.8203 181.57 18.1367 181.898 18.4766C182.66 19.25 183.041 20.1875 183.041 21.2891C183.041 22.3789 182.672 23.3223 181.934 24.1191C180.469 25.6777 178.359 26.457 175.605 26.457C173.812 26.457 172.16 26.1641 170.648 25.5781C169.875 25.2734 169.254 24.8516 168.785 24.3125C168.316 23.7734 168.082 23.1992 168.082 22.5898C168.082 21.9805 168.275 21.5117 168.662 21.1836C169.049 20.8438 169.488 20.6738 169.98 20.6738C170.473 20.6738 170.889 20.8262 171.229 21.1309C171.58 21.4355 171.756 21.8164 171.756 22.2734C171.756 22.7188 171.715 23.1992 171.633 23.7148C172.875 24.1719 174.199 24.4004 175.605 24.4004Z" fill="black"/>
</svg>
