<svg width="241" height="30" viewBox="0 0 241 30" fill="none" xmlns="http://www.w3.org/2000/svg">
<path d="M23.104 5.976C24.32 3.512 24.448 3.608 25.824 3.448C26.592 3.352 27.232 2.936 27.232 2.072C27.232 0.952 26.56 0.216 22.528 0.216C21.248 0.216 17.216 0.183998 17.216 2.168C17.216 3.448 18.848 3.128 18.848 4.28C18.848 5.048 17.376 7.928 16.992 8.696C16.608 9.368 16.064 11.16 15.008 11.096C14.304 11.064 13.952 9.816 13.664 9.272C12.896 7.608 11.648 5.112 11.648 4.44C11.648 3.576 13.184 3.512 13.184 2.296C13.184 1.816 13.44 0.216 6.72 0.216C5.088 0.216 0 0.344 0 2.808C0 3.48 0.32 3.96 0.96 4.056C2.208 4.248 2.496 4.632 3.456 6.712L9.824 20.792C10.528 22.296 11.008 23.352 12.864 23.352C14.592 23.352 15.232 21.88 15.904 20.568L23.104 5.976ZM37.3538 8.152C37.3538 7.48 37.3218 6.744 36.3618 6.744C36.0417 6.744 27.9138 7.704 27.9138 9.976C27.9138 11.416 29.5458 11.064 29.8338 12.184C30.1858 13.368 30.1218 18.008 29.7057 19.128C29.3218 20.12 28.0098 20.184 28.0098 21.336C28.0098 22.104 28.2338 23.352 33.7378 23.352C35.1778 23.352 39.2418 23.352 39.2418 21.176C39.2418 19.48 37.3538 20.856 37.3538 17.08V8.152ZM37.1938 2.584C37.1938 0.983999 35.3698 0.567999 34.0898 0.567999C32.4578 0.567999 28.2338 1.432 28.2338 3.544C28.2338 5.112 29.6738 5.72 31.0178 5.72C32.8418 5.72 37.1938 5.08 37.1938 2.584ZM49.1298 15.192C49.1298 13.752 48.9378 11.544 50.9858 11.544C53.9938 11.544 53.0978 16.664 52.9378 18.936C52.7778 21.016 51.7218 20.472 51.7218 21.624C51.7218 23.416 54.7938 23.352 55.9458 23.352C61.9618 23.352 61.8338 22.008 61.8338 21.432C61.8338 20.056 60.5218 20.632 60.3618 18.104C60.0418 13.24 61.1618 6.744 54.5378 6.744C52.7138 6.744 51.7538 7.416 51.1138 8.056C50.4738 8.728 50.1858 9.4 49.6738 9.4C49.1938 9.4 49.0338 8.952 49.0338 8.568C49.0338 8.376 49.0658 8.184 49.0658 7.992C49.0658 7.352 48.6178 6.744 47.9138 6.744C47.2738 6.744 39.9138 8.344 39.9138 10.04C39.9138 11.736 41.8658 10.968 41.8018 13.336L41.6738 18.136C41.5778 21.272 40.1058 19.896 40.1058 21.432C40.1058 23.352 43.3698 23.352 44.6498 23.352C45.9618 23.352 50.2178 23.416 50.2178 21.432C50.2178 20.216 49.1298 20.76 49.1298 17.656V15.192ZM72.5243 11.32C72.5243 10.168 72.5883 10.136 73.7083 10.136H75.9163C77.1643 10.136 77.3883 10.008 77.3883 8.184C77.3883 6.744 77.3883 6.648 76.0123 6.648H73.7723C72.9403 6.648 72.7163 6.648 72.6203 6.392C72.4603 6.008 72.5243 5.016 72.5243 4.024C72.5243 2.552 72.4603 2.68 71.1803 2.68C70.2203 2.68 70.2523 2.584 69.5163 3.032L62.2203 7.672C61.8362 7.928 61.9322 8.28 61.9322 8.728C61.9322 9.464 61.8682 9.784 62.0922 10.008C62.2523 10.168 62.6683 10.136 63.5003 10.136C64.2363 10.136 64.5883 10.072 64.7483 10.168C64.9083 10.264 64.9083 10.488 64.9083 11.064V17.656C64.9083 22.744 69.0043 23.448 70.6363 23.448C73.8683 23.448 77.5163 21.592 77.5163 19.48C77.5163 18.904 77.0683 18.008 76.4283 18.008C75.8523 18.008 75.2763 18.744 74.2843 18.744C73.4203 18.744 72.5243 18.232 72.5243 16.088V11.32ZM86.678 16.12C87.574 16.12 87.542 16.92 87.542 17.624C87.542 18.584 87.446 19.896 86.23 19.896C85.302 19.896 84.854 19 84.854 18.168C84.854 17.144 85.59 16.12 86.678 16.12ZM94.454 12.152C94.454 7.352 89.462 6.648 87.638 6.648C84.598 6.648 79.19 8.408 79.19 11.128C79.19 12.152 79.958 12.888 80.982 12.888C83.83 12.888 84.022 9.432 85.942 9.432C87.414 9.432 87.446 11.64 87.446 12.696C87.446 13.848 86.998 13.784 86.006 13.784C80.374 13.784 78.198 16.6 78.198 18.872C78.198 22.04 80.854 23.448 83.51 23.448C84.982 23.448 85.942 23.032 86.646 22.616C87.35 22.232 87.766 21.816 88.15 21.816C88.95 21.816 89.014 23.448 91.542 23.448C93.878 23.448 96.374 21.464 96.374 19.64C96.374 17.912 94.454 20.984 94.454 15.352V12.152ZM108.013 12.856C108.013 14.104 107.533 15.352 106.093 15.352C104.461 15.352 104.141 12.696 104.141 11.48C104.141 10.36 104.685 9.176 105.933 9.176C107.725 9.176 108.013 11.544 108.013 12.856ZM101.997 24.6C101.997 24.376 102.093 24.088 102.381 24.088C102.733 24.088 104.461 24.344 105.197 24.344C106.22 24.344 107.469 24.152 107.949 24.152C108.557 24.152 109.197 24.44 109.197 25.112C109.197 26.584 106.797 26.744 105.741 26.744C104.493 26.744 101.997 26.296 101.997 24.6ZM116.013 22.744C116.013 20.824 114.605 18.936 111.277 18.936C109.997 18.936 106.285 19.48 105.293 19.48C104.557 19.48 103.149 19.288 103.149 18.296C103.149 17.784 103.469 17.432 104.013 17.432C104.589 17.432 105.133 17.528 105.677 17.528C109.197 17.528 114.221 16.056 114.221 11.736C114.221 11.416 114.125 11.064 114.125 10.744C114.125 10.392 115.917 9.112 115.917 7.32C115.917 6.712 115.597 5.752 114.861 5.752C114.381 5.752 113.165 7.448 110.733 7.448C109.613 7.448 107.405 6.84 105.773 6.84C102.541 6.84 97.7085 8.632 97.7085 12.504C97.7085 14.872 99.8845 16.344 99.8845 16.728C99.8845 17.176 97.2925 17.848 97.2925 20.12C97.2925 21.528 99.0205 22.424 99.0205 22.84C99.0205 23.32 97.2605 23.352 97.2605 25.208C97.2605 27.256 99.5005 29.496 105.421 29.496C113.26 29.496 116.013 25.624 116.013 22.744ZM131.642 15.64C132.666 15.64 133.626 15.352 133.626 13.24C133.626 10.84 131.226 6.648 125.786 6.648C120.986 6.648 116.794 10.232 116.794 15.16C116.794 19.288 119.77 23.448 125.53 23.448C128.41 23.448 132.922 21.656 132.922 19.192C132.922 18.584 132.346 17.592 131.674 17.592C131.002 17.592 129.818 19.032 127.418 19.032C125.914 19.032 123.834 17.688 123.834 16.088C123.834 15.544 124.346 15.64 124.698 15.64H131.642ZM125.594 12.568C124.762 12.568 123.674 12.824 123.674 11.672C123.674 10.648 124.538 9.56 125.594 9.56C126.778 9.56 127.482 10.456 127.482 11.608C127.482 12.76 126.458 12.568 125.594 12.568ZM147.42 14.36C147.42 15.416 147.324 17.688 147.004 18.584C146.332 20.28 144.604 19.448 144.604 21.24C144.604 22.616 145.436 23.352 150.556 23.352C158.332 23.352 158.044 21.944 158.044 21.208C158.044 18.776 154.812 21.4 154.94 16.664C154.972 13.368 154.78 13.112 156.188 13.112C159.612 13.112 157.5 16.728 159.548 16.728C161.724 16.728 161.884 12.856 161.884 11.352C161.884 10.104 161.756 6.616 159.932 6.616C157.692 6.616 159.26 9.56 156.796 9.56C154.94 9.56 154.908 9.016 154.908 8.44C154.908 3.8 155.74 3.96 157.692 3.96C163.836 3.96 162.684 7.256 164.892 7.256C166.108 7.256 166.62 6.136 166.62 5.048C166.62 2.872 165.308 0.247999 164.06 0.247999C163.612 0.247999 157.18 0.567999 156.54 0.567999C153.884 0.567999 148.124 0.247999 147.292 0.247999C146.268 0.247999 144.86 0.759998 144.86 1.976C144.86 3.736 146.94 2.552 147.324 5.304C147.484 6.552 147.452 8.6 147.42 9.912V14.36ZM175.75 23.448C180.454 23.448 186.086 20.248 186.086 15C186.086 11.032 182.886 6.648 177.286 6.648C172.006 6.648 166.982 9.88 166.982 15.608C166.982 20.664 171.014 23.448 175.75 23.448ZM178.726 17.432C178.726 18.456 178.47 19.48 177.254 19.416C175.046 19.288 174.47 14.36 174.342 12.344C174.278 11.416 174.854 10.424 175.91 10.424C178.086 10.424 178.726 15.992 178.726 17.432ZM196.192 15.192C196.192 13.752 196 11.544 198.048 11.544C201.056 11.544 200.16 16.664 200 18.936C199.84 21.016 198.784 20.472 198.784 21.624C198.784 23.416 201.856 23.352 203.008 23.352C209.024 23.352 208.896 22.008 208.896 21.432C208.896 20.056 207.584 20.632 207.424 18.104C207.104 13.24 208.224 6.744 201.6 6.744C199.776 6.744 198.816 7.416 198.176 8.056C197.536 8.728 197.248 9.4 196.736 9.4C196.256 9.4 196.096 8.952 196.096 8.568C196.096 8.376 196.128 8.184 196.128 7.992C196.128 7.352 195.68 6.744 194.976 6.744C194.336 6.744 186.976 8.344 186.976 10.04C186.976 11.736 188.928 10.968 188.864 13.336L188.736 18.136C188.64 21.272 187.168 19.896 187.168 21.432C187.168 23.352 190.432 23.352 191.712 23.352C193.024 23.352 197.28 23.416 197.28 21.432C197.28 20.216 196.192 20.76 196.192 17.656V15.192ZM219.587 11.32C219.587 10.168 219.651 10.136 220.771 10.136H222.979C224.227 10.136 224.451 10.008 224.451 8.184C224.451 6.744 224.451 6.648 223.075 6.648H220.835C220.003 6.648 219.779 6.648 219.683 6.392C219.523 6.008 219.587 5.016 219.587 4.024C219.587 2.552 219.523 2.68 218.243 2.68C217.283 2.68 217.315 2.584 216.579 3.032L209.283 7.672C208.899 7.928 208.995 8.28 208.995 8.728C208.995 9.464 208.931 9.784 209.155 10.008C209.315 10.168 209.731 10.136 210.563 10.136C211.299 10.136 211.651 10.072 211.811 10.168C211.971 10.264 211.971 10.488 211.971 11.064V17.656C211.971 22.744 216.067 23.448 217.699 23.448C220.931 23.448 224.579 21.592 224.579 19.48C224.579 18.904 224.131 18.008 223.491 18.008C222.915 18.008 222.339 18.744 221.347 18.744C220.483 18.744 219.587 18.232 219.587 16.088V11.32ZM232.141 6.648C228.845 6.648 226.221 8.664 226.221 11.864C226.221 17.144 232.493 17.368 232.493 19.256C232.493 19.96 231.885 20.28 231.245 20.28C229.453 20.28 228.173 17.112 226.765 17.112C225.837 17.112 225.549 17.784 225.549 18.616C225.549 19.832 226.349 21.656 227.149 22.552C227.597 23.064 227.917 23.16 228.557 23.16C228.781 23.16 228.973 23.128 229.165 23.096C229.389 23.064 229.581 23.032 229.805 23.032C229.997 23.032 230.701 23.128 231.501 23.224C232.301 23.352 233.229 23.448 233.869 23.448C237.197 23.448 240.109 21.368 240.109 18.36C240.109 13.4 233.069 13.016 233.069 10.968C233.069 10.36 233.645 9.88 234.22 9.88C235.629 9.88 236.653 12.408 238.477 12.408C239.309 12.408 240.045 11.768 240.045 10.904C240.045 9.592 238.573 6.648 237.101 6.648C236.813 6.648 236.525 6.744 236.237 6.84C235.949 6.968 235.693 7.064 235.373 7.064C235.149 7.064 234.637 6.936 234.061 6.84C233.453 6.712 232.781 6.648 232.141 6.648Z" fill="black"/>
</svg>
